<mxfile host="app.diagrams.net" modified="2020-12-22T13:11:53.816Z" agent="5.0 (Windows NT 10.0; Win64; x64) AppleWebKit/537.36 (KHTML, like Gecko) Chrome/87.0.4280.88 Safari/537.36 Edg/87.0.664.66" etag="kbH_pzYuS1stQ4Rsq3l0" version="14.1.1" type="github">
  <diagram id="2cE4DeyMNlwUSsoBxYa-" name="第 1 页">
    <mxGraphModel dx="1038" dy="500" grid="1" gridSize="10" guides="1" tooltips="1" connect="1" arrows="1" fold="1" page="1" pageScale="1" pageWidth="1169" pageHeight="1654" math="0" shadow="0">
      <root>
        <mxCell id="0" />
        <mxCell id="1" parent="0" />
        <mxCell id="Sf1lN9ztoleLg4mkQbbL-1" value="" style="rounded=0;whiteSpace=wrap;html=1;" vertex="1" parent="1">
          <mxGeometry x="400" y="60" width="240" height="210" as="geometry" />
        </mxCell>
        <mxCell id="Sf1lN9ztoleLg4mkQbbL-2" value="" style="endArrow=classic;html=1;" edge="1" parent="1">
          <mxGeometry width="50" height="50" relative="1" as="geometry">
            <mxPoint x="640" y="165" as="sourcePoint" />
            <mxPoint x="730" y="165" as="targetPoint" />
          </mxGeometry>
        </mxCell>
        <mxCell id="Sf1lN9ztoleLg4mkQbbL-4" value="" style="endArrow=classic;html=1;" edge="1" parent="1">
          <mxGeometry width="50" height="50" relative="1" as="geometry">
            <mxPoint x="309" y="170" as="sourcePoint" />
            <mxPoint x="399" y="170" as="targetPoint" />
          </mxGeometry>
        </mxCell>
        <mxCell id="Sf1lN9ztoleLg4mkQbbL-5" value="" style="endArrow=classic;html=1;" edge="1" parent="1">
          <mxGeometry width="50" height="50" relative="1" as="geometry">
            <mxPoint x="309" y="200" as="sourcePoint" />
            <mxPoint x="399" y="200" as="targetPoint" />
          </mxGeometry>
        </mxCell>
        <mxCell id="Sf1lN9ztoleLg4mkQbbL-6" value="" style="endArrow=classic;html=1;" edge="1" parent="1">
          <mxGeometry width="50" height="50" relative="1" as="geometry">
            <mxPoint x="309" y="230" as="sourcePoint" />
            <mxPoint x="399" y="230" as="targetPoint" />
          </mxGeometry>
        </mxCell>
        <mxCell id="Sf1lN9ztoleLg4mkQbbL-10" value="" style="endArrow=classic;html=1;" edge="1" parent="1">
          <mxGeometry width="50" height="50" relative="1" as="geometry">
            <mxPoint x="309" y="110" as="sourcePoint" />
            <mxPoint x="399" y="110" as="targetPoint" />
          </mxGeometry>
        </mxCell>
        <mxCell id="Sf1lN9ztoleLg4mkQbbL-11" value="" style="endArrow=classic;html=1;" edge="1" parent="1">
          <mxGeometry width="50" height="50" relative="1" as="geometry">
            <mxPoint x="309" y="80" as="sourcePoint" />
            <mxPoint x="399" y="80" as="targetPoint" />
          </mxGeometry>
        </mxCell>
        <mxCell id="Sf1lN9ztoleLg4mkQbbL-12" value="" style="endArrow=classic;html=1;" edge="1" parent="1">
          <mxGeometry width="50" height="50" relative="1" as="geometry">
            <mxPoint x="309" y="140" as="sourcePoint" />
            <mxPoint x="399" y="140" as="targetPoint" />
          </mxGeometry>
        </mxCell>
        <mxCell id="Sf1lN9ztoleLg4mkQbbL-13" value="&lt;span style=&quot;font-size: 22px&quot;&gt;&lt;b&gt;data_ram&lt;/b&gt;&lt;/span&gt;" style="text;html=1;strokeColor=none;fillColor=none;align=center;verticalAlign=middle;whiteSpace=wrap;rounded=0;" vertex="1" parent="1">
          <mxGeometry x="500" y="30" width="40" height="20" as="geometry" />
        </mxCell>
        <mxCell id="Sf1lN9ztoleLg4mkQbbL-14" value="addr[31:0]" style="text;html=1;strokeColor=none;fillColor=none;align=center;verticalAlign=middle;whiteSpace=wrap;rounded=0;" vertex="1" parent="1">
          <mxGeometry x="422" y="70" width="40" height="20" as="geometry" />
        </mxCell>
        <mxCell id="Sf1lN9ztoleLg4mkQbbL-15" value="ce" style="text;html=1;strokeColor=none;fillColor=none;align=center;verticalAlign=middle;whiteSpace=wrap;rounded=0;" vertex="1" parent="1">
          <mxGeometry x="407" y="98" width="40" height="20" as="geometry" />
        </mxCell>
        <mxCell id="Sf1lN9ztoleLg4mkQbbL-16" value="clk" style="text;html=1;strokeColor=none;fillColor=none;align=center;verticalAlign=middle;whiteSpace=wrap;rounded=0;" vertex="1" parent="1">
          <mxGeometry x="407" y="130" width="40" height="20" as="geometry" />
        </mxCell>
        <mxCell id="Sf1lN9ztoleLg4mkQbbL-17" value="&lt;font style=&quot;font-size: 11px&quot;&gt;data_i[31:0]&lt;/font&gt;" style="text;html=1;strokeColor=none;fillColor=none;align=center;verticalAlign=middle;whiteSpace=wrap;rounded=0;" vertex="1" parent="1">
          <mxGeometry x="426" y="162" width="40" height="20" as="geometry" />
        </mxCell>
        <mxCell id="Sf1lN9ztoleLg4mkQbbL-18" value="we" style="text;html=1;strokeColor=none;fillColor=none;align=center;verticalAlign=middle;whiteSpace=wrap;rounded=0;" vertex="1" parent="1">
          <mxGeometry x="413" y="192" width="37" height="28" as="geometry" />
        </mxCell>
        <mxCell id="Sf1lN9ztoleLg4mkQbbL-19" value="sel[3:0]" style="text;html=1;strokeColor=none;fillColor=none;align=center;verticalAlign=middle;whiteSpace=wrap;rounded=0;" vertex="1" parent="1">
          <mxGeometry x="413" y="221" width="40" height="20" as="geometry" />
        </mxCell>
        <mxCell id="Sf1lN9ztoleLg4mkQbbL-23" style="edgeStyle=orthogonalEdgeStyle;rounded=0;orthogonalLoop=1;jettySize=auto;html=1;exitX=0.5;exitY=1;exitDx=0;exitDy=0;" edge="1" parent="1">
          <mxGeometry relative="1" as="geometry">
            <mxPoint x="604" y="118" as="sourcePoint" />
            <mxPoint x="604" y="118" as="targetPoint" />
          </mxGeometry>
        </mxCell>
        <mxCell id="Sf1lN9ztoleLg4mkQbbL-25" style="edgeStyle=orthogonalEdgeStyle;rounded=0;orthogonalLoop=1;jettySize=auto;html=1;exitX=0.5;exitY=1;exitDx=0;exitDy=0;" edge="1" parent="1">
          <mxGeometry relative="1" as="geometry">
            <mxPoint x="591" y="268" as="sourcePoint" />
            <mxPoint x="591" y="268" as="targetPoint" />
          </mxGeometry>
        </mxCell>
        <mxCell id="Sf1lN9ztoleLg4mkQbbL-26" style="edgeStyle=orthogonalEdgeStyle;rounded=0;orthogonalLoop=1;jettySize=auto;html=1;exitX=0.5;exitY=1;exitDx=0;exitDy=0;" edge="1" parent="1">
          <mxGeometry relative="1" as="geometry">
            <mxPoint x="585" y="235.5" as="sourcePoint" />
            <mxPoint x="585" y="235.5" as="targetPoint" />
          </mxGeometry>
        </mxCell>
        <mxCell id="Sf1lN9ztoleLg4mkQbbL-27" style="edgeStyle=orthogonalEdgeStyle;rounded=0;orthogonalLoop=1;jettySize=auto;html=1;exitX=0.5;exitY=1;exitDx=0;exitDy=0;" edge="1" parent="1">
          <mxGeometry relative="1" as="geometry">
            <mxPoint x="598" y="266" as="sourcePoint" />
            <mxPoint x="598" y="266" as="targetPoint" />
          </mxGeometry>
        </mxCell>
        <mxCell id="Sf1lN9ztoleLg4mkQbbL-28" style="edgeStyle=orthogonalEdgeStyle;rounded=0;orthogonalLoop=1;jettySize=auto;html=1;exitX=0.5;exitY=1;exitDx=0;exitDy=0;" edge="1" parent="1">
          <mxGeometry relative="1" as="geometry">
            <mxPoint x="599" y="296" as="sourcePoint" />
            <mxPoint x="599" y="296" as="targetPoint" />
          </mxGeometry>
        </mxCell>
        <mxCell id="Sf1lN9ztoleLg4mkQbbL-29" style="edgeStyle=orthogonalEdgeStyle;rounded=0;orthogonalLoop=1;jettySize=auto;html=1;exitX=0.5;exitY=1;exitDx=0;exitDy=0;" edge="1" parent="1">
          <mxGeometry relative="1" as="geometry">
            <mxPoint x="605" y="330" as="sourcePoint" />
            <mxPoint x="605" y="330" as="targetPoint" />
          </mxGeometry>
        </mxCell>
        <mxCell id="Sf1lN9ztoleLg4mkQbbL-30" style="edgeStyle=orthogonalEdgeStyle;rounded=0;orthogonalLoop=1;jettySize=auto;html=1;exitX=0.5;exitY=1;exitDx=0;exitDy=0;" edge="1" parent="1">
          <mxGeometry relative="1" as="geometry">
            <mxPoint x="600" y="326" as="sourcePoint" />
            <mxPoint x="600" y="326" as="targetPoint" />
          </mxGeometry>
        </mxCell>
        <mxCell id="Sf1lN9ztoleLg4mkQbbL-31" value="&lt;span style=&quot;color: rgb(0 , 0 , 0) ; font-family: &amp;#34;helvetica&amp;#34; ; font-size: 12px ; font-style: normal ; font-weight: 400 ; letter-spacing: normal ; text-align: center ; text-indent: 0px ; text-transform: none ; word-spacing: 0px ; background-color: rgb(248 , 249 , 250) ; display: inline ; float: none&quot;&gt;data_o[31:0]&lt;/span&gt;" style="text;whiteSpace=wrap;html=1;" vertex="1" parent="1">
          <mxGeometry x="558" y="153" width="100" height="30" as="geometry" />
        </mxCell>
      </root>
    </mxGraphModel>
  </diagram>
</mxfile>
